<?xml version="1.0" encoding="UTF-8" standalone="no"?>
<!-- Created with Inkscape (http://www.inkscape.org/) -->

<svg
   width="300"
   height="150"
   viewBox="0 0 79.375003 39.687501"
   version="1.1"
   id="svg141149"
   xmlns="http://www.w3.org/2000/svg"
   xmlns:svg="http://www.w3.org/2000/svg">
  <defs
     id="defs141146">
    <filter
       style="color-interpolation-filters:sRGB"
       id="filter131462"
       x="-0.040685216"
       y="-0.12667006"
       width="1.0813704"
       height="1.253332">
      <feGaussianBlur
         stdDeviation="1.4858075"
         id="feGaussianBlur131464" />
    </filter>
    <filter
       style="color-interpolation-filters:sRGB"
       id="filter140564"
       x="-0.36465965"
       y="-0.36465965"
       width="1.7293193"
       height="1.7293193">
      <feGaussianBlur
         stdDeviation="41.552682"
         id="feGaussianBlur140566" />
    </filter>
    <clipPath
       clipPathUnits="userSpaceOnUse"
       id="clipPath2235">
      <circle
         r="220.95764"
         cy="-7337.9995"
         cx="-11915.122"
         id="circle2237"
         style="opacity:0.632;vector-effect:none;fill:#fdfdfb;fill-opacity:1;fill-rule:evenodd;stroke:#000000;stroke-width:64.2319;stroke-linecap:butt;stroke-linejoin:miter;stroke-miterlimit:4;stroke-dasharray:none;stroke-dashoffset:0;stroke-opacity:0" />
    </clipPath>
  </defs>
  <g
     id="layer1"
     transform="translate(-91.9362,-77.540406)">
    <g
       id="g136782"
       transform="matrix(0.26458333,0,0,0.26458333,-556.3982,-734.88588)">
      <path
         id="path136726"
         style="color:#000000;opacity:0.472617;mix-blend-mode:normal;fill:#252641;fill-opacity:1;stroke:#252641;stroke-width:1;stroke-miterlimit:4;stroke-dasharray:none;stroke-opacity:1;filter:url(#filter131462)"
         d="m 604.13421,1808.9928 c -1.40233,-6e-4 -3.03127,1.333 -4.72034,3.3668 -1.68902,2.0337 -3.43222,4.7829 -5.00802,7.6635 -1.57586,2.8805 -2.98373,5.8918 -3.99859,8.4483 -1.01492,2.5565 -1.63979,4.6459 -1.64043,5.7356 0,1.7939 0.31847,3.5059 1.1486,4.7792 0.83013,1.2733 2.17915,2.0977 4.18519,2.0988 0.47415,0 1.06787,-0.244 1.74921,-0.6553 0.68127,-0.4112 1.44777,-0.9935 2.24599,-1.6851 1.55072,-1.3436 3.21501,-3.0998 4.59197,-4.8141 0.14739,0.6944 0.41273,1.3445 0.83928,1.8358 0.46681,0.5376 1.1237,0.8835 1.97961,0.8839 1.21306,6e-4 2.25446,-0.9626 2.99674,-1.9085 0.52152,-0.6645 0.8243,-1.2032 1.00197,-1.5394 -0.006,0.3547 0.007,0.8786 0.1299,1.5213 0.0923,0.4818 0.24451,0.9673 0.50436,1.3409 0.25991,0.3736 0.63905,0.6344 1.14907,0.6346 1.16715,0 2.31587,-0.6045 3.39804,-1.5486 1.08211,-0.9441 2.10105,-2.2304 3.00957,-3.6145 1.79098,-2.7284 3.14268,-5.8203 3.67779,-7.4389 0.43233,0.1384 0.92246,0.2134 1.46818,0.223 -0.0321,0.3029 -0.22474,0.742 -0.52425,1.2718 -0.32775,0.5796 -0.76784,1.2648 -1.20898,2.0143 -0.88233,1.4991 -1.77336,3.2567 -1.77429,4.9802 0,1.0183 0.24661,2.0273 0.71376,2.7902 0.46722,0.763 1.16552,1.2824 2.04459,1.2828 1.79098,0 3.56994,-1.6064 4.77273,-3.448 0.0338,0.6664 0.13923,1.4476 0.50285,2.1095 0.41716,0.7594 1.18272,1.3422 2.50159,1.343 0.45012,0 0.93943,-0.2463 1.45838,-0.6595 0.51889,-0.4133 1.06864,-0.998 1.62952,-1.6969 1.09664,-1.3663 2.23282,-3.1698 3.2356,-4.9737 0.43513,0.5755 0.97023,0.9661 1.51275,1.2235 -0.194,0.7893 -0.30798,1.4951 -0.30839,2.0392 0,1.1031 0.21605,2.1183 0.78149,2.8641 0.56543,0.7457 1.48084,1.2086 2.82887,1.2094 0.89441,6e-4 1.85128,-0.4791 2.79819,-1.2125 0.89849,-0.6958 1.78672,-1.6263 2.60022,-2.6112 0.14961,0.9413 0.48057,1.862 1.05668,2.567 0.61828,0.7565 1.51531,1.2612 2.7167,1.2619 1.46638,6e-4 2.9835,-0.837 4.36058,-2.1026 1.36687,-1.2563 2.59608,-2.9389 3.49778,-4.6706 0.28173,-0.059 0.54817,-0.1496 0.80418,-0.2594 -0.36497,1.234 -0.57244,2.3062 -0.57273,2.9656 0,2.5502 1.49362,4.0726 3.19027,4.0736 1.53276,6e-4 2.87589,-1.013 3.83708,-2.0153 0.63001,-0.6569 1.01381,-1.198 1.26182,-1.5728 -0.0748,0.3869 -0.1485,0.9065 -0.10662,1.5132 0.035,0.5081 0.15807,1.0236 0.46207,1.4189 0.30401,0.3953 0.79245,0.6593 1.51141,0.6597 1.37883,0 2.62519,-0.9502 3.6142,-2.1294 0.59396,1.2386 1.65805,2.1322 2.94664,2.1329 1.51222,0 3.05256,-0.6716 4.32336,-1.6027 0.62178,0.8801 1.53404,1.4835 2.58815,1.6061 1.67817,0.1951 3.22615,-0.6173 4.35282,-1.664 0.56334,-0.5234 1.02261,-1.1061 1.34266,-1.6574 0.32011,-0.5513 0.50355,-1.0687 0.50378,-1.4786 v 0 c 0,-0.2617 -0.086,-0.5508 -0.25262,-0.7826 -0.1667,-0.2319 -0.42288,-0.4069 -0.74538,-0.4071 -0.36921,0 -0.64919,0.1443 -0.88035,0.3457 -0.23109,0.2014 -0.42008,0.4573 -0.63274,0.6978 -0.42533,0.4812 -0.92334,0.9098 -2.03887,0.78 -0.32559,-0.038 -0.55121,-0.1048 -0.70368,-0.1892 -0.15253,-0.084 -0.23395,-0.1826 -0.28435,-0.3024 -0.10091,-0.2398 -0.0583,-0.5871 -0.0583,-0.9928 0,-0.04 0.0216,-0.1589 0.066,-0.3204 0.0449,-0.1614 0.11088,-0.3713 0.19534,-0.6216 0.16892,-0.5003 0.41087,-1.1624 0.7014,-1.9318 0.58101,-1.5387 1.35614,-3.5069 2.13126,-5.4776 0.7742,-1.9682 1.54874,-3.6924 2.13115,-5.1205 0.58241,-1.4281 0.97624,-2.5553 0.97671,-3.359 0,-0.5005 -0.21809,-0.9105 -0.54759,-1.1971 -0.30762,-0.2676 -0.71125,-0.4264 -1.13174,-0.4762 v -0.01 l -0.0893,-0.01 c -0.0603,-0.01 -0.12092,-0.01 -0.18158,-0.01 -0.51784,0 -0.90345,0.1298 -1.18261,0.3437 -0.27922,0.2139 -0.44831,0.5075 -0.54864,0.8198 -0.20065,0.6244 -0.13812,1.3347 -0.13835,1.7219 0,0.4547 -0.0948,0.7649 -0.26855,1.161 -0.1737,0.3961 -0.42719,0.8735 -0.73079,1.6333 -0.60329,1.5102 -1.40794,3.4511 -2.21281,5.4084 -0.80493,1.9574 -1.60986,3.9309 -2.21415,5.5085 -0.25903,0.6759 -0.47654,1.2705 -0.6461,1.7688 -0.264,0.4151 -0.53371,0.8273 -0.87452,1.132 -0.34291,0.3066 -0.75296,0.5077 -1.32248,0.5074 -0.32617,0 -0.54986,-0.049 -0.69942,-0.125 -0.14949,-0.076 -0.2294,-0.1762 -0.27986,-0.3058 -0.10102,-0.2591 -0.056,-0.6467 -0.056,-1.0528 v 0 c 0,-0.04 0.0216,-0.1589 0.066,-0.3204 0.0449,-0.1614 0.11094,-0.3712 0.1954,-0.6214 0.16886,-0.5004 0.41086,-1.1626 0.70134,-1.9319 0.58107,-1.5388 1.35631,-3.5068 2.13144,-5.4775 0.77413,-1.9682 1.54873,-3.6925 2.13114,-5.1206 0.58241,-1.4281 0.97613,-2.5553 0.97654,-3.3589 0,-0.5339 -0.24813,-0.9643 -0.61484,-1.2529 -0.36671,-0.2886 -0.84985,-0.441 -1.3352,-0.4413 -0.51796,0 -0.90368,0.1296 -1.1829,0.3435 -0.27922,0.2139 -0.44831,0.5078 -0.54864,0.82 -0.20071,0.6244 -0.13818,1.3347 -0.13835,1.7219 0,0.4546 -0.0948,0.7649 -0.26861,1.161 -0.1737,0.3961 -0.42719,0.8735 -0.73079,1.6334 -0.60318,1.5101 -1.40788,3.451 -2.21275,5.4083 -0.80493,1.9574 -1.60975,3.931 -2.21421,5.5085 -0.45857,1.1973 -0.79449,2.1502 -0.93564,2.7184 -0.46727,0.4107 -1.10976,0.6903 -1.62258,0.69 -0.095,0 -0.16023,-0.024 -0.21284,-0.066 -0.0525,-0.043 -0.095,-0.1096 -0.125,-0.2061 -0.0601,-0.193 -0.0627,-0.4987 -0.0117,-0.8784 0.10208,-0.7594 0.40784,-1.8159 0.77081,-2.9558 0.36298,-1.14 0.78283,-2.3651 1.11262,-3.4738 0.32979,-1.1088 0.57103,-2.0975 0.57144,-2.7869 0,-0.5772 -0.52874,-1.199 -1.37031,-1.1995 -0.43839,0 -0.8429,0.057 -1.1864,0.3142 -0.29082,0.2178 -0.52606,0.5838 -0.71353,1.1398 -0.0654,-0.1665 -0.17522,-0.3732 -0.37873,-0.5799 -0.43828,-0.4452 -1.27821,-0.8762 -2.86637,-0.8771 -1.24071,-6e-4 -2.37199,0.7806 -3.35109,1.9318 -0.97484,1.1461 -1.80445,2.6653 -2.44967,4.1868 -0.26855,0.2652 -0.53756,0.5028 -0.80832,0.7062 0.53954,-1.5432 0.76019,-3.0057 0.47281,-4.114 -0.153,-0.5899 -0.45006,-1.0818 -0.91313,-1.4193 -0.46301,-0.3376 -1.08713,-0.5184 -1.88366,-0.5064 -2.19607,0.033 -3.59811,1.6935 -3.89197,3.5099 -0.28808,1.7807 0.4937,3.7283 2.59183,4.4502 -1.07984,1.5769 -2.46724,2.8152 -3.83037,2.8145 -0.26796,0 -0.5123,-0.2066 -0.69738,-0.5923 -0.18513,-0.3858 -0.29881,-0.9386 -0.29846,-1.5711 0,-0.9015 0.47082,-2.4807 1.13559,-4.3169 0.66466,-1.8362 1.52074,-3.9374 2.28415,-5.9235 0.38094,-0.9912 0.88215,-2.2369 1.30259,-3.3476 0.42043,-1.1106 0.76031,-2.0739 0.82091,-2.5515 0.059,-0.4656 -0.0163,-0.9316 -0.21681,-1.29 -0.20065,-0.3584 -0.53837,-0.6093 -0.97408,-0.6096 -1.4217,-6e-4 -2.12741,0.4818 -2.45061,1.1177 -0.32314,0.6357 -0.27432,1.3984 -0.2745,1.961 v 0 c 0,0.6293 -0.55552,1.5529 -0.95897,2.6672 0,0 -2.8914,6.7548 -4.21657,10.8807 -0.37009,0.8925 -1.20436,1.7924 -2.14263,2.4623 -0.93862,0.6703 -1.98352,1.1086 -2.7429,1.1082 -0.38351,0 -0.6149,-0.1657 -0.76603,-0.471 -0.14331,-0.2895 -0.19289,-0.7178 -0.1702,-1.2169 1.52255,-0.2067 3.03028,-0.9849 4.1685,-2.0916 1.15986,-1.1278 1.93826,-2.5967 1.93913,-4.146 v 0 c 0,-0.9412 -0.2994,-1.8469 -0.82931,-2.5219 -0.52992,-0.675 -1.29571,-1.1184 -2.21094,-1.1189 -1.07383,0 -2.14655,0.9121 -3.12174,2.2232 -0.95279,1.2809 -1.81005,2.9553 -2.46053,4.5921 -0.45373,-0.3118 -0.77331,-0.7305 -0.99479,-1.1786 0.48069,-0.9986 0.88321,-1.9199 1.16529,-2.669 0.28662,-0.7612 0.45391,-1.3373 0.45414,-1.6783 0,-0.51 -0.27373,-0.891 -0.67661,-1.0596 -0.40287,-0.1686 -0.92637,-0.1345 -1.44199,0.1324 -1.03119,0.5339 -2.03199,1.9995 -2.03351,4.7206 v 0 c 0,0.402 0.028,0.7715 0.079,1.1131 0,0.086 -0.0443,0.2517 -0.13007,0.4572 -0.0861,0.2064 -0.21162,0.4563 -0.36555,0.7315 -0.30791,0.5505 -0.72934,1.2028 -1.17724,1.8261 -0.44796,0.6234 -0.92305,1.2184 -1.3366,1.6544 -0.20677,0.218 -0.3985,0.3962 -0.56059,0.517 -0.1621,0.1209 -0.29771,0.1781 -0.3631,0.1781 -0.31526,0 -0.49281,-0.1029 -0.60393,-0.2922 -0.11111,-0.1893 -0.1485,-0.4837 -0.11461,-0.8557 0.0677,-0.7439 0.41133,-1.7829 0.84173,-2.8873 0.43035,-1.1044 0.94638,-2.2769 1.35573,-3.3067 0.40935,-1.0298 0.71575,-1.9078 0.7161,-2.4697 v 0 c 0,-0.312 -0.009,-0.7552 -0.30214,-1.1217 -0.29258,-0.3664 -0.85545,-0.6336 -1.90238,-0.6342 -0.499,0 -0.93583,0.376 -1.32587,0.957 -0.39004,0.5811 -0.74176,1.3799 -1.06554,2.2801 -0.64762,1.8003 -1.1808,4.0064 -1.63186,5.6496 -0.35825,1.3052 -1.72086,2.6778 -3.51306,2.6768 -0.30407,0 -0.46091,-0.085 -0.54543,-0.2301 -0.0845,-0.1449 -0.097,-0.3778 -0.0344,-0.6795 0.12482,-0.6033 0.53697,-1.4557 1.03247,-2.3623 0.4955,-0.9067 1.0733,-1.8714 1.52867,-2.723 0.45543,-0.8516 0.79467,-1.5783 0.79484,-2.0703 0,-0.7078 -0.19429,-1.2184 -0.5092,-1.578 -0.31498,-0.3597 -0.74369,-0.5652 -1.1986,-0.6883 -0.8513,-0.2302 -1.79867,-0.1892 -2.33885,-0.2829 0.0667,-0.1366 0.22188,-0.462 0.40906,-0.9628 0.23319,-0.6239 0.46867,-1.4111 0.46896,-2.0853 v 0 c 0,-0.5628 -0.22509,-0.9885 -0.5529,-1.2654 -0.32786,-0.2768 -0.75354,-0.4082 -1.1612,-0.4084 -0.71219,0 -1.37492,0.5605 -1.86423,1.294 -0.48926,0.7335 -0.80995,1.6493 -0.81048,2.4196 0,1.1208 0.61846,1.9815 1.26981,2.563 -0.52204,1.4731 -1.79856,3.8641 -3.19255,5.8918 -0.7046,1.0249 -1.43843,1.9564 -2.1144,2.6278 -0.67603,0.6714 -1.29927,1.071 -1.73755,1.0708 -0.0799,-10e-5 -0.12173,-0.021 -0.15702,-0.063 -0.0356,-0.042 -0.0635,-0.1148 -0.0738,-0.2219 -0.0204,-0.2142 0.0315,-0.5503 0.14261,-0.9609 0.22235,-0.8214 0.67334,-1.9474 1.17555,-3.1293 0.50227,-1.1819 1.05563,-2.4209 1.48429,-3.478 0.42871,-1.0571 0.7368,-1.9177 0.7368,-2.4076 0,-0.4452 -0.15299,-0.785 -0.38153,-1.0307 -0.22847,-0.2457 -0.52781,-0.3991 -0.82254,-0.4967 -0.58696,-0.1943 -1.1643,-0.1698 -1.16914,-0.1696 -0.10855,0 -0.19756,0.066 -0.28622,0.1573 -0.0889,0.092 -0.18006,0.2194 -0.27851,0.3788 -0.19692,0.3188 -0.42073,0.7667 -0.67107,1.3033 -0.50064,1.0733 -1.10544,2.4997 -1.78409,3.9246 -0.6786,1.4249 -1.43156,2.848 -2.22179,3.9088 -0.7903,1.0608 -1.61442,1.7447 -2.41258,1.7443 -0.0408,0 -0.0437,-0.01 -0.0596,-0.035 -0.0157,-0.032 -0.028,-0.1036 -0.021,-0.2042 0.0134,-0.2014 0.093,-0.513 0.2217,-0.892 0.25729,-0.758 0.70753,-1.7934 1.19305,-2.8776 0.48547,-1.0841 1.0064,-2.2179 1.40677,-3.1796 0.20012,-0.481 0.37015,-0.9187 0.49083,-1.2875 0.12074,-0.3687 0.19371,-0.6651 0.19383,-0.8823 0,-0.786 -0.11141,-1.4148 -0.46313,-1.854 -0.35178,-0.4391 -0.93512,-0.665 -1.81752,-0.6655 -0.0675,0 -0.10259,0.031 -0.14494,0.065 -0.0426,0.034 -0.0878,0.08 -0.13987,0.1378 -0.10412,0.1158 -0.23337,0.2807 -0.3873,0.4899 -0.30792,0.4184 -0.71324,1.013 -1.19107,1.7261 -0.95571,1.4262 -2.20079,3.326 -3.5235,5.2251 -1.32266,1.8991 -2.7233,3.7977 -3.98646,5.2175 -0.63158,0.7099 -1.22904,1.3001 -1.76175,1.7096 -0.53266,0.4096 -1.00086,0.633 -1.35602,0.6328 -0.21914,0 -0.36695,-0.067 -0.47707,-0.1924 -0.11013,-0.1258 -0.18251,-0.3211 -0.21098,-0.583 -0.0572,-0.5237 0.0638,-1.3003 0.32034,-2.2341 0.51306,-1.8675 1.56,-4.3704 2.72744,-6.8727 2.13885,-4.5845 4.45384,-8.7486 4.8657,-9.4863 -0.0636,0.3927 -0.13322,0.9092 -0.15795,1.4643 -0.0227,0.5158 -0.006,1.0331 0.11228,1.4351 0.0585,0.2011 0.1418,0.3748 0.26475,0.5027 0.12302,0.1279 0.28949,0.2054 0.48477,0.2055 1.27378,6e-4 2.09522,-0.6366 2.57269,-1.6458 0.47748,-1.0092 0.63141,-2.3856 0.63228,-3.9114 0,-1.5248 -0.1282,-2.8814 -0.44633,-3.8691 -0.15906,-0.4939 -0.36525,-0.8968 -0.6335,-1.1811 -0.26819,-0.2843 -0.60358,-0.447 -0.99368,-0.4472 z m 52.63588,14.5439 0.0902,0.01 c 0.21803,0.03 0.34851,0.1599 0.42959,0.4039 0.0812,0.2443 0.0949,0.5993 0.0408,1.0231 -0.10546,0.8253 -0.46552,1.9107 -0.99508,2.9957 -1.16506,-0.5114 -1.76607,-1.606 -1.73125,-2.576 0.0175,-0.4971 0.1996,-0.9577 0.55354,-1.2957 0.35376,-0.3379 0.88256,-0.5572 1.61219,-0.5569 z m -12.37292,0.4713 c 0.0809,0.013 0.14162,0.061 0.1933,0.1636 0.0531,0.1056 0.0874,0.2645 0.093,0.4569 0.0111,0.3848 -0.0878,0.9012 -0.30196,1.4121 -0.42808,1.0214 -1.29915,2.013 -2.63441,2.013 0.35487,-1.0163 0.82202,-2.0175 1.30055,-2.7695 0.25023,-0.3933 0.50308,-0.7187 0.73861,-0.9415 0.23303,-0.2204 0.44651,-0.3323 0.61088,-0.3346 z m 22.00982,0.01 v 0 c 0.0785,0 0.15212,0.01 0.22142,0.012 0.51066,0.057 0.83497,0.3808 0.98056,0.8676 0.14553,0.4868 0.0972,1.1354 -0.1761,1.7951 v 0.01 0.01 c -0.37581,1.1339 -1.05522,2.6009 -1.78992,3.7775 -0.36729,0.5883 -0.74894,1.1042 -1.10935,1.4688 -0.36047,0.3645 -0.69965,0.5685 -0.95851,0.5684 -0.30722,0 -0.49538,-0.1144 -0.62353,-0.3269 -0.12815,-0.2126 -0.18636,-0.5351 -0.17545,-0.932 0.0216,-0.7937 0.31404,-1.8746 0.73803,-2.9545 0.42399,-1.0798 0.9791,-2.1615 1.51904,-2.9682 0.27001,-0.4034 0.53657,-0.7382 0.77723,-0.968 0.24072,-0.2298 0.45601,-0.3463 0.59892,-0.3463 z"
         transform="matrix(1.9751457,0,0,1.9751457,1376.1328,-463.02944)" />
      <path
         id="path136728"
         style="color:#000000;fill:#252641;fill-opacity:1;stroke:#252641;stroke-width:1;stroke-miterlimit:4;stroke-dasharray:none;stroke-opacity:1"
         d="m 604.13421,1808.9928 c -1.40233,-6e-4 -3.03127,1.333 -4.72034,3.3668 -1.68902,2.0337 -3.43222,4.7829 -5.00802,7.6635 -1.57586,2.8805 -2.98373,5.8918 -3.99859,8.4483 -1.01492,2.5565 -1.63979,4.6459 -1.64043,5.7356 0,1.7939 0.31847,3.5059 1.1486,4.7792 0.83013,1.2733 2.17915,2.0977 4.18519,2.0988 0.47415,0 1.06787,-0.244 1.74921,-0.6553 0.68127,-0.4112 1.44777,-0.9935 2.24599,-1.6851 1.55072,-1.3436 3.21501,-3.0998 4.59197,-4.8141 0.14739,0.6944 0.41273,1.3445 0.83928,1.8358 0.46681,0.5376 1.1237,0.8835 1.97961,0.8839 1.21306,6e-4 2.25446,-0.9626 2.99674,-1.9085 0.52152,-0.6645 0.8243,-1.2032 1.00197,-1.5394 -0.006,0.3547 0.007,0.8786 0.1299,1.5213 0.0923,0.4818 0.24451,0.9673 0.50436,1.3409 0.25991,0.3736 0.63905,0.6344 1.14907,0.6346 1.16715,0 2.31587,-0.6045 3.39804,-1.5486 1.08211,-0.9441 2.10105,-2.2304 3.00957,-3.6145 1.79098,-2.7284 3.14268,-5.8203 3.67779,-7.4389 0.43233,0.1384 0.92246,0.2134 1.46818,0.223 -0.0321,0.3029 -0.22474,0.742 -0.52425,1.2718 -0.32775,0.5796 -0.76784,1.2648 -1.20898,2.0143 -0.88233,1.4991 -1.77336,3.2567 -1.77429,4.9802 0,1.0183 0.24661,2.0273 0.71376,2.7902 0.46722,0.763 1.16552,1.2824 2.04459,1.2828 1.79098,0 3.56994,-1.6064 4.77273,-3.448 0.0338,0.6664 0.13923,1.4476 0.50285,2.1095 0.41716,0.7594 1.18272,1.3422 2.50159,1.343 0.45012,0 0.93943,-0.2463 1.45838,-0.6595 0.51889,-0.4133 1.06864,-0.998 1.62952,-1.6969 1.09664,-1.3663 2.23282,-3.1698 3.2356,-4.9737 0.43513,0.5755 0.97023,0.9661 1.51275,1.2235 -0.194,0.7893 -0.30798,1.4951 -0.30839,2.0392 0,1.1031 0.21605,2.1183 0.78149,2.8641 0.56543,0.7457 1.48084,1.2086 2.82887,1.2094 0.89441,6e-4 1.85128,-0.4791 2.79819,-1.2125 0.89849,-0.6958 1.78672,-1.6263 2.60022,-2.6112 0.14961,0.9413 0.48057,1.862 1.05668,2.567 0.61828,0.7565 1.51531,1.2612 2.7167,1.2619 1.46638,6e-4 2.9835,-0.837 4.36058,-2.1026 1.36687,-1.2563 2.59608,-2.9389 3.49778,-4.6706 0.28173,-0.059 0.54817,-0.1496 0.80418,-0.2594 -0.36497,1.234 -0.57244,2.3062 -0.57273,2.9656 0,2.5502 1.49362,4.0726 3.19027,4.0736 1.53276,6e-4 2.87589,-1.013 3.83708,-2.0153 0.63001,-0.6569 1.01381,-1.198 1.26182,-1.5728 -0.0748,0.3869 -0.1485,0.9065 -0.10662,1.5132 0.035,0.5081 0.15807,1.0236 0.46207,1.4189 0.30401,0.3953 0.79245,0.6593 1.51141,0.6597 1.37883,0 2.62519,-0.9502 3.6142,-2.1294 0.59396,1.2386 1.65805,2.1322 2.94664,2.1329 1.51222,0 3.05256,-0.6716 4.32336,-1.6027 0.62178,0.8801 1.53404,1.4835 2.58815,1.6061 1.67817,0.1951 3.22615,-0.6173 4.35282,-1.664 0.56334,-0.5234 1.02261,-1.1061 1.34266,-1.6574 0.32011,-0.5513 0.50355,-1.0687 0.50378,-1.4786 v 0 c 0,-0.2617 -0.086,-0.5508 -0.25262,-0.7826 -0.1667,-0.2319 -0.42288,-0.4069 -0.74538,-0.4071 -0.36921,0 -0.64919,0.1443 -0.88035,0.3457 -0.23109,0.2014 -0.42008,0.4573 -0.63274,0.6978 -0.42533,0.4812 -0.92334,0.9098 -2.03887,0.78 -0.32559,-0.038 -0.55121,-0.1048 -0.70368,-0.1892 -0.15253,-0.084 -0.23395,-0.1826 -0.28435,-0.3024 -0.10091,-0.2398 -0.0583,-0.5871 -0.0583,-0.9928 0,-0.04 0.0216,-0.1589 0.066,-0.3204 0.0449,-0.1614 0.11088,-0.3713 0.19534,-0.6216 0.16892,-0.5003 0.41087,-1.1624 0.7014,-1.9318 0.58101,-1.5387 1.35614,-3.5069 2.13126,-5.4776 0.7742,-1.9682 1.54874,-3.6924 2.13115,-5.1205 0.58241,-1.4281 0.97624,-2.5553 0.97671,-3.359 0,-0.5005 -0.21809,-0.9105 -0.54759,-1.1971 -0.30762,-0.2676 -0.71125,-0.4264 -1.13174,-0.4762 v -0.01 l -0.0893,-0.01 c -0.0603,-0.01 -0.12092,-0.01 -0.18158,-0.01 -0.51784,0 -0.90345,0.1298 -1.18261,0.3437 -0.27922,0.2139 -0.44831,0.5075 -0.54864,0.8198 -0.20065,0.6244 -0.13812,1.3347 -0.13835,1.7219 0,0.4547 -0.0948,0.7649 -0.26855,1.161 -0.1737,0.3961 -0.42719,0.8735 -0.73079,1.6333 -0.60329,1.5102 -1.40794,3.4511 -2.21281,5.4084 -0.80493,1.9574 -1.60986,3.9309 -2.21415,5.5085 -0.25903,0.6759 -0.47654,1.2705 -0.6461,1.7688 -0.264,0.4151 -0.53371,0.8273 -0.87452,1.132 -0.34291,0.3066 -0.75296,0.5077 -1.32248,0.5074 -0.32617,0 -0.54986,-0.049 -0.69942,-0.125 -0.14949,-0.076 -0.2294,-0.1762 -0.27986,-0.3058 -0.10102,-0.2591 -0.056,-0.6467 -0.056,-1.0528 v 0 c 0,-0.04 0.0216,-0.1589 0.066,-0.3204 0.0449,-0.1614 0.11094,-0.3712 0.1954,-0.6214 0.16886,-0.5004 0.41086,-1.1626 0.70134,-1.9319 0.58107,-1.5388 1.35631,-3.5068 2.13144,-5.4775 0.77413,-1.9682 1.54873,-3.6925 2.13114,-5.1206 0.58241,-1.4281 0.97613,-2.5553 0.97654,-3.3589 0,-0.5339 -0.24813,-0.9643 -0.61484,-1.2529 -0.36671,-0.2886 -0.84985,-0.441 -1.3352,-0.4413 -0.51796,0 -0.90368,0.1296 -1.1829,0.3435 -0.27922,0.2139 -0.44831,0.5078 -0.54864,0.82 -0.20071,0.6244 -0.13818,1.3347 -0.13835,1.7219 0,0.4546 -0.0948,0.7649 -0.26861,1.161 -0.1737,0.3961 -0.42719,0.8735 -0.73079,1.6334 -0.60318,1.5101 -1.40788,3.451 -2.21275,5.4083 -0.80493,1.9574 -1.60975,3.931 -2.21421,5.5085 -0.45857,1.1973 -0.79449,2.1502 -0.93564,2.7184 -0.46727,0.4107 -1.10976,0.6903 -1.62258,0.69 -0.095,0 -0.16023,-0.024 -0.21284,-0.066 -0.0525,-0.043 -0.095,-0.1096 -0.125,-0.2061 -0.0601,-0.193 -0.0627,-0.4987 -0.0117,-0.8784 0.10208,-0.7594 0.40784,-1.8159 0.77081,-2.9558 0.36298,-1.14 0.78283,-2.3651 1.11262,-3.4738 0.32979,-1.1088 0.57103,-2.0975 0.57144,-2.7869 0,-0.5772 -0.52874,-1.199 -1.37031,-1.1995 -0.43839,0 -0.8429,0.057 -1.1864,0.3142 -0.29082,0.2178 -0.52606,0.5838 -0.71353,1.1398 -0.0654,-0.1665 -0.17522,-0.3732 -0.37873,-0.5799 -0.43828,-0.4452 -1.27821,-0.8762 -2.86637,-0.8771 -1.24071,-6e-4 -2.37199,0.7806 -3.35109,1.9318 -0.97484,1.1461 -1.80445,2.6653 -2.44967,4.1868 -0.26855,0.2652 -0.53756,0.5028 -0.80832,0.7062 0.53954,-1.5432 0.76019,-3.0057 0.47281,-4.114 -0.153,-0.5899 -0.45006,-1.0818 -0.91313,-1.4193 -0.46301,-0.3376 -1.08713,-0.5184 -1.88366,-0.5064 -2.19607,0.033 -3.59811,1.6935 -3.89197,3.5099 -0.28808,1.7807 0.4937,3.7283 2.59183,4.4502 -1.07984,1.5769 -2.46724,2.8152 -3.83037,2.8145 -0.26796,0 -0.5123,-0.2066 -0.69738,-0.5923 -0.18513,-0.3858 -0.29881,-0.9386 -0.29846,-1.5711 0,-0.9015 0.47082,-2.4807 1.13559,-4.3169 0.66466,-1.8362 1.52074,-3.9374 2.28415,-5.9235 0.38094,-0.9912 0.88215,-2.2369 1.30259,-3.3476 0.42043,-1.1106 0.76031,-2.0739 0.82091,-2.5515 0.059,-0.4656 -0.0163,-0.9316 -0.21681,-1.29 -0.20065,-0.3584 -0.53837,-0.6093 -0.97408,-0.6096 -1.4217,-6e-4 -2.12741,0.4818 -2.45061,1.1177 -0.32314,0.6357 -0.27432,1.3984 -0.2745,1.961 v 0 c 0,0.6293 -0.55552,1.5529 -0.95897,2.6672 0,0 -2.8914,6.7548 -4.21657,10.8807 -0.37009,0.8925 -1.20436,1.7924 -2.14263,2.4623 -0.93862,0.6703 -1.98352,1.1086 -2.7429,1.1082 -0.38351,0 -0.6149,-0.1657 -0.76603,-0.471 -0.14331,-0.2895 -0.19289,-0.7178 -0.1702,-1.2169 1.52255,-0.2067 3.03028,-0.9849 4.1685,-2.0916 1.15986,-1.1278 1.93826,-2.5967 1.93913,-4.146 v 0 c 0,-0.9412 -0.2994,-1.8469 -0.82931,-2.5219 -0.52992,-0.675 -1.29571,-1.1184 -2.21094,-1.1189 -1.07383,0 -2.14655,0.9121 -3.12174,2.2232 -0.95279,1.2809 -1.81005,2.9553 -2.46053,4.5921 -0.45373,-0.3118 -0.77331,-0.7305 -0.99479,-1.1786 0.48069,-0.9986 0.88321,-1.9199 1.16529,-2.669 0.28662,-0.7612 0.45391,-1.3373 0.45414,-1.6783 0,-0.51 -0.27373,-0.891 -0.67661,-1.0596 -0.40287,-0.1686 -0.92637,-0.1345 -1.44199,0.1324 -1.03119,0.5339 -2.03199,1.9995 -2.03351,4.7206 v 0 c 0,0.402 0.028,0.7715 0.079,1.1131 0,0.086 -0.0443,0.2517 -0.13007,0.4572 -0.0861,0.2064 -0.21162,0.4563 -0.36555,0.7315 -0.30791,0.5505 -0.72934,1.2028 -1.17724,1.8261 -0.44796,0.6234 -0.92305,1.2184 -1.3366,1.6544 -0.20677,0.218 -0.3985,0.3962 -0.56059,0.517 -0.1621,0.1209 -0.29771,0.1781 -0.3631,0.1781 -0.31526,0 -0.49281,-0.1029 -0.60393,-0.2922 -0.11111,-0.1893 -0.1485,-0.4837 -0.11461,-0.8557 0.0677,-0.7439 0.41133,-1.7829 0.84173,-2.8873 0.43035,-1.1044 0.94638,-2.2769 1.35573,-3.3067 0.40935,-1.0298 0.71575,-1.9078 0.7161,-2.4697 v 0 c 0,-0.312 -0.009,-0.7552 -0.30214,-1.1217 -0.29258,-0.3664 -0.85545,-0.6336 -1.90238,-0.6342 -0.499,0 -0.93583,0.376 -1.32587,0.957 -0.39004,0.5811 -0.74176,1.3799 -1.06554,2.2801 -0.64762,1.8003 -1.1808,4.0064 -1.63186,5.6496 -0.35825,1.3052 -1.72086,2.6778 -3.51306,2.6768 -0.30407,0 -0.46091,-0.085 -0.54543,-0.2301 -0.0845,-0.1449 -0.097,-0.3778 -0.0344,-0.6795 0.12482,-0.6033 0.53697,-1.4557 1.03247,-2.3623 0.4955,-0.9067 1.0733,-1.8714 1.52867,-2.723 0.45543,-0.8516 0.79467,-1.5783 0.79484,-2.0703 0,-0.7078 -0.19429,-1.2184 -0.5092,-1.578 -0.31498,-0.3597 -0.74369,-0.5652 -1.1986,-0.6883 -0.8513,-0.2302 -1.79867,-0.1892 -2.33885,-0.2829 0.0667,-0.1366 0.22188,-0.462 0.40906,-0.9628 0.23319,-0.6239 0.46867,-1.4111 0.46896,-2.0853 v 0 c 0,-0.5628 -0.22509,-0.9885 -0.5529,-1.2654 -0.32786,-0.2768 -0.75354,-0.4082 -1.1612,-0.4084 -0.71219,0 -1.37492,0.5605 -1.86423,1.294 -0.48926,0.7335 -0.80995,1.6493 -0.81048,2.4196 0,1.1208 0.61846,1.9815 1.26981,2.563 -0.52204,1.4731 -1.79856,3.8641 -3.19255,5.8918 -0.7046,1.0249 -1.43843,1.9564 -2.1144,2.6278 -0.67603,0.6714 -1.29927,1.071 -1.73755,1.0708 -0.0799,-10e-5 -0.12173,-0.021 -0.15702,-0.063 -0.0356,-0.042 -0.0635,-0.1148 -0.0738,-0.2219 -0.0204,-0.2142 0.0315,-0.5503 0.14261,-0.9609 0.22235,-0.8214 0.67334,-1.9474 1.17555,-3.1293 0.50227,-1.1819 1.05563,-2.4209 1.48429,-3.478 0.42871,-1.0571 0.7368,-1.9177 0.7368,-2.4076 0,-0.4452 -0.15299,-0.785 -0.38153,-1.0307 -0.22847,-0.2457 -0.52781,-0.3991 -0.82254,-0.4967 -0.58696,-0.1943 -1.1643,-0.1698 -1.16914,-0.1696 -0.10855,0 -0.19756,0.066 -0.28622,0.1573 -0.0889,0.092 -0.18006,0.2194 -0.27851,0.3788 -0.19692,0.3188 -0.42073,0.7667 -0.67107,1.3033 -0.50064,1.0733 -1.10544,2.4997 -1.78409,3.9246 -0.6786,1.4249 -1.43156,2.848 -2.22179,3.9088 -0.7903,1.0608 -1.61442,1.7447 -2.41258,1.7443 -0.0408,0 -0.0437,-0.01 -0.0596,-0.035 -0.0157,-0.032 -0.028,-0.1036 -0.021,-0.2042 0.0134,-0.2014 0.093,-0.513 0.2217,-0.892 0.25729,-0.758 0.70753,-1.7934 1.19305,-2.8776 0.48547,-1.0841 1.0064,-2.2179 1.40677,-3.1796 0.20012,-0.481 0.37015,-0.9187 0.49083,-1.2875 0.12074,-0.3687 0.19371,-0.6651 0.19383,-0.8823 0,-0.786 -0.11141,-1.4148 -0.46313,-1.854 -0.35178,-0.4391 -0.93512,-0.665 -1.81752,-0.6655 -0.0675,0 -0.10259,0.031 -0.14494,0.065 -0.0426,0.034 -0.0878,0.08 -0.13987,0.1378 -0.10412,0.1158 -0.23337,0.2807 -0.3873,0.4899 -0.30792,0.4184 -0.71324,1.013 -1.19107,1.7261 -0.95571,1.4262 -2.20079,3.326 -3.5235,5.2251 -1.32266,1.8991 -2.7233,3.7977 -3.98646,5.2175 -0.63158,0.7099 -1.22904,1.3001 -1.76175,1.7096 -0.53266,0.4096 -1.00086,0.633 -1.35602,0.6328 -0.21914,0 -0.36695,-0.067 -0.47707,-0.1924 -0.11013,-0.1258 -0.18251,-0.3211 -0.21098,-0.583 -0.0572,-0.5237 0.0638,-1.3003 0.32034,-2.2341 0.51306,-1.8675 1.56,-4.3704 2.72744,-6.8727 2.13885,-4.5845 4.45384,-8.7486 4.8657,-9.4863 -0.0636,0.3927 -0.13322,0.9092 -0.15795,1.4643 -0.0227,0.5158 -0.006,1.0331 0.11228,1.4351 0.0585,0.2011 0.1418,0.3748 0.26475,0.5027 0.12302,0.1279 0.28949,0.2054 0.48477,0.2055 1.27378,6e-4 2.09522,-0.6366 2.57269,-1.6458 0.47748,-1.0092 0.63141,-2.3856 0.63228,-3.9114 0,-1.5248 -0.1282,-2.8814 -0.44633,-3.8691 -0.15906,-0.4939 -0.36525,-0.8968 -0.6335,-1.1811 -0.26819,-0.2843 -0.60358,-0.447 -0.99368,-0.4472 z m 52.63588,14.5439 0.0902,0.01 c 0.21803,0.03 0.34851,0.1599 0.42959,0.4039 0.0812,0.2443 0.0949,0.5993 0.0408,1.0231 -0.10546,0.8253 -0.46552,1.9107 -0.99508,2.9957 -1.16506,-0.5114 -1.76607,-1.606 -1.73125,-2.576 0.0175,-0.4971 0.1996,-0.9577 0.55354,-1.2957 0.35376,-0.3379 0.88256,-0.5572 1.61219,-0.5569 z m -12.37292,0.4713 c 0.0809,0.013 0.14162,0.061 0.1933,0.1636 0.0531,0.1056 0.0874,0.2645 0.093,0.4569 0.0111,0.3848 -0.0878,0.9012 -0.30196,1.4121 -0.42808,1.0214 -1.29915,2.013 -2.63441,2.013 0.35487,-1.0163 0.82202,-2.0175 1.30055,-2.7695 0.25023,-0.3933 0.50308,-0.7187 0.73861,-0.9415 0.23303,-0.2204 0.44651,-0.3323 0.61088,-0.3346 z m 22.00982,0.01 v 0 c 0.0785,0 0.15212,0.01 0.22142,0.012 0.51066,0.057 0.83497,0.3808 0.98056,0.8676 0.14553,0.4868 0.0972,1.1354 -0.1761,1.7951 v 0.01 0.01 c -0.37581,1.1339 -1.05522,2.6009 -1.78992,3.7775 -0.36729,0.5883 -0.74894,1.1042 -1.10935,1.4688 -0.36047,0.3645 -0.69965,0.5685 -0.95851,0.5684 -0.30722,0 -0.49538,-0.1144 -0.62353,-0.3269 -0.12815,-0.2126 -0.18636,-0.5351 -0.17545,-0.932 0.0216,-0.7937 0.31404,-1.8746 0.73803,-2.9545 0.42399,-1.0798 0.9791,-2.1615 1.51904,-2.9682 0.27001,-0.4034 0.53657,-0.7382 0.77723,-0.968 0.24072,-0.2298 0.45601,-0.3463 0.59892,-0.3463 z"
         transform="matrix(1.9751457,0,0,1.9751457,1376.1328,-463.02944)" />
      <circle
         style="opacity:0.250976;mix-blend-mode:normal;vector-effect:none;fill:#252641;fill-opacity:1;fill-rule:evenodd;stroke:none;stroke-width:15.7925;stroke-linecap:butt;stroke-linejoin:miter;stroke-miterlimit:4;stroke-dasharray:none;stroke-dashoffset:0;stroke-opacity:1;filter:url(#filter140564)"
         id="circle136786"
         r="136.73906"
         cy="-7765.6299"
         cx="-13263.386"
         transform="matrix(0.15681563,0.05959329,-0.05959329,0.15681563,4119.8865,5153.7685)" />
      <g
         transform="matrix(0.14752438,0.05606242,-0.05606242,0.14752438,3910.2237,4968.5845)"
         id="g136742">
        <g
           transform="matrix(1.1948613,-2.2966316e-8,2.2966316e-8,1.1948613,3314.4609,1403.2591)"
           id="g136740">
          <circle
             r="117.17761"
             cy="-7567.3428"
             cx="-13188.032"
             id="circle136730"
             style="opacity:1;vector-effect:none;fill:#fdfdfb;fill-opacity:1;fill-rule:evenodd;stroke:#fdfdfb;stroke-width:9.08352;stroke-linecap:butt;stroke-linejoin:miter;stroke-miterlimit:4;stroke-dasharray:none;stroke-dashoffset:0;stroke-opacity:1" />
          <circle
             style="opacity:1;vector-effect:none;fill:#fdfdfb;fill-opacity:1;fill-rule:evenodd;stroke:#1d1e3a;stroke-width:17.8778;stroke-linecap:butt;stroke-linejoin:miter;stroke-miterlimit:4;stroke-dasharray:none;stroke-dashoffset:0;stroke-opacity:1"
             id="circle136732"
             cx="-13188.032"
             cy="-7567.3428"
             r="97.889687" />
          <g
             aria-label="} {"
             transform="matrix(0.37941739,0,0,0.37941739,-8667.2274,-4783.1778)"
             clip-path="url(#clipPath2235)"
             style="font-style:normal;font-variant:normal;font-weight:normal;font-stretch:normal;font-size:340.718px;line-height:0;font-family:Montserrat;-inkscape-font-specification:'Montserrat, Normal';font-variant-ligatures:normal;font-variant-caps:normal;font-variant-numeric:normal;font-feature-settings:normal;text-align:start;letter-spacing:0px;word-spacing:0px;writing-mode:lr-tb;text-anchor:start;fill:#ff4e60;fill-opacity:1;stroke:none;stroke-width:1.01064"
             id="g136738">
            <path
               d="m -11981.501,-7362.8717 v 49.7448 h -11.243 q -6.815,0 -10.903,3.7479 -3.748,3.7479 -3.748,11.5844 v 52.8113 q 0,32.0275 -18.399,49.0634 -18.058,17.3766 -53.493,17.3766 h -22.487 v -49.4041 h 5.111 q 12.266,0 18.398,-6.4736 6.133,-6.133 6.133,-18.0581 v -43.6119 q 0,-18.7395 5.793,-28.2796 6.132,-9.8808 19.761,-13.6287 -13.629,-3.7479 -19.761,-13.288 -5.793,-9.8808 -5.793,-28.6203 v -43.6119 q 0,-11.9252 -6.133,-18.0581 -6.132,-6.4736 -18.398,-6.4736 h -5.111 v -49.4041 h 22.487 q 35.435,0 53.493,17.3766 18.399,17.0359 18.399,49.0634 v 52.8113 q 0,7.8365 3.748,11.5844 4.088,3.7479 10.903,3.7479 z"
               style="font-style:normal;font-variant:normal;font-weight:800;font-stretch:normal;font-family:Montserrat;-inkscape-font-specification:'Montserrat Ultra-Bold';text-align:center;text-anchor:middle;fill:#ff4e60;fill-opacity:1;stroke-width:1.01064"
               id="path136734" />
            <path
               d="m -11758.304,-7379.9076 q 0,18.7395 -6.133,28.6203 -5.792,9.5401 -19.421,13.288 13.629,3.7479 19.421,13.6287 6.133,9.5401 6.133,28.2796 v 43.6119 q 0,11.9251 6.133,18.0581 6.133,6.4736 18.399,6.4736 h 4.77 v 49.4041 h -22.147 q -35.434,0 -53.833,-17.3766 -18.058,-17.0359 -18.058,-49.0634 v -52.8113 q 0,-7.8365 -4.089,-11.5844 -3.748,-3.7479 -10.562,-3.7479 h -11.584 v -49.7448 h 11.584 q 6.814,0 10.562,-3.7479 4.089,-3.7479 4.089,-11.5844 v -52.8113 q 0,-32.0275 18.058,-49.0634 18.399,-17.3766 53.833,-17.3766 h 22.147 v 49.4041 h -4.77 q -12.266,0 -18.399,6.4736 -6.133,6.1329 -6.133,18.0581 z"
               style="font-style:normal;font-variant:normal;font-weight:800;font-stretch:normal;font-family:Montserrat;-inkscape-font-specification:'Montserrat Ultra-Bold';text-align:center;text-anchor:middle;fill:#ff4e60;fill-opacity:1;stroke-width:1.01064"
               id="path136736" />
          </g>
        </g>
      </g>
      <path
         id="path136744"
         style="color:#000000;fill:#ffffff;fill-opacity:1;stroke:#252641;stroke-width:1;stroke-miterlimit:5.3;stroke-dasharray:none;stroke-opacity:1"
         d="m 602.50932,1806.8588 v 0.01 c -1.40233,-6e-4 -3.03164,1.3315 -4.72071,3.3653 -1.68902,2.0337 -3.43201,4.7834 -5.00781,7.664 -1.57586,2.8805 -2.98319,5.8928 -3.99805,8.4493 -1.01492,2.5565 -1.63998,4.6446 -1.64062,5.7343 0,1.7939 0.31831,3.506 1.14844,4.7793 0.83013,1.2733 2.1795,2.0985 4.18554,2.0996 0.47415,0 1.06671,-0.2449 1.74805,-0.6562 0.68127,-0.4112 1.44787,-0.992 2.24609,-1.6836 1.55072,-1.3436 3.21484,-3.1002 4.5918,-4.8145 0.14739,0.6944 0.41329,1.3447 0.83985,1.836 0.46681,0.5376 1.12455,0.8824 1.98046,0.8828 1.21306,6e-4 2.25382,-0.9623 2.9961,-1.9082 0.52152,-0.6645 0.82428,-1.2029 1.00195,-1.5391 -0.006,0.3547 0.006,0.8788 0.12891,1.5215 0.0923,0.4818 0.24601,0.9663 0.50586,1.3398 0.25991,0.3736 0.63841,0.6346 1.14843,0.6348 1.16715,0 2.31627,-0.6047 3.39844,-1.5488 1.08211,-0.9441 2.10125,-2.2292 3.00977,-3.6133 1.79098,-2.7284 3.14262,-5.8208 3.67773,-7.4394 0.43233,0.1384 0.92108,0.213 1.4668,0.2226 -0.0321,0.3029 -0.22393,0.7417 -0.52344,1.2715 -0.32775,0.5796 -0.76784,1.2661 -1.20898,2.0156 -0.88233,1.4991 -1.77251,3.257 -1.77344,4.9805 0,1.0183 0.24574,2.0262 0.71289,2.7891 0.46722,0.7629 1.16585,1.2828 2.04492,1.2832 1.79098,0 3.57065,-1.6057 4.77344,-3.4473 0.0338,0.6664 0.13833,1.4475 0.50195,2.1094 0.41716,0.7594 1.18309,1.341 2.50195,1.3418 0.45012,0 0.94004,-0.245 1.45899,-0.6582 0.51889,-0.4133 1.06803,-0.9984 1.62891,-1.6973 1.09664,-1.3663 2.23159,-3.1707 3.23437,-4.9746 0.43513,0.5755 0.97115,0.9672 1.51367,1.2246 -0.194,0.7893 -0.30818,1.495 -0.30859,2.0391 0,1.1031 0.21581,2.1174 0.78125,2.8632 0.56543,0.7457 1.48205,1.2082 2.83008,1.209 0.89441,6e-4 1.84996,-0.4775 2.79687,-1.2109 0.89849,-0.6958 1.78806,-1.6264 2.60156,-2.6113 0.14961,0.9413 0.48053,1.8614 1.05665,2.5664 0.61828,0.7565 1.5154,1.261 2.71679,1.2617 1.46638,6e-4 2.9823,-0.836 4.35938,-2.1016 1.36687,-1.2563 2.59634,-2.9402 3.49804,-4.6719 0.28173,-0.059 0.54868,-0.1499 0.80469,-0.2597 -0.36497,1.234 -0.57197,2.3074 -0.57226,2.9668 0,2.5502 1.4928,4.0712 3.18945,4.0722 1.53276,6e-4 2.8767,-1.0113 3.83789,-2.0136 0.63001,-0.6569 1.01371,-1.1995 1.26172,-1.5743 -0.0748,0.3869 -0.1493,0.907 -0.10742,1.5137 0.035,0.5081 0.15889,1.0246 0.46289,1.4199 0.30401,0.3953 0.7908,0.6578 1.50976,0.6582 1.37883,0 2.62623,-0.9497 3.61524,-2.1289 0.59396,1.2386 1.65867,2.1321 2.94726,2.1328 1.51222,0 3.05147,-0.6704 4.32227,-1.6015 0.62178,0.8801 1.53378,1.4829 2.58789,1.6055 1.67817,0.1951 3.22684,-0.6174 4.35351,-1.6641 0.56334,-0.5234 1.02175,-1.1069 1.3418,-1.6582 0.32011,-0.5513 0.50368,-1.0686 0.50391,-1.4785 0,-0.2617 -0.0853,-0.5495 -0.25196,-0.7813 -0.1667,-0.2319 -0.42359,-0.408 -0.74609,-0.4082 -0.36921,0 -0.64775,0.1443 -0.87891,0.3457 -0.23109,0.2014 -0.42015,0.4568 -0.63281,0.6973 -0.42533,0.4812 -0.92353,0.911 -2.03906,0.7812 -0.32559,-0.038 -0.55261,-0.105 -0.70508,-0.1894 -0.15253,-0.084 -0.2328,-0.1829 -0.2832,-0.3027 -0.10091,-0.2398 -0.0586,-0.5865 -0.0586,-0.9922 0,-0.04 0.022,-0.1588 0.0664,-0.3203 0.0449,-0.1614 0.11085,-0.3728 0.19531,-0.6231 0.16892,-0.5003 0.41064,-1.1622 0.70118,-1.9316 0.581,-1.5387 1.35573,-3.5059 2.13085,-5.4766 0.7742,-1.9682 1.54845,-3.693 2.13086,-5.1211 0.58241,-1.4281 0.9761,-2.5557 0.97657,-3.3594 0,-0.5005 -0.21738,-0.9106 -0.54688,-1.1972 -0.30762,-0.2676 -0.71037,-0.4248 -1.13086,-0.4746 v -0.012 l -0.0898,-0.01 c -0.0603,-0.01 -0.12098,-0.01 -0.18164,-0.01 -0.51784,0 -0.90444,0.1299 -1.1836,0.3438 -0.27922,0.2139 -0.44849,0.508 -0.54882,0.8203 -0.20065,0.6244 -0.13649,1.3354 -0.13672,1.7226 0,0.4547 -0.0958,0.7641 -0.26953,1.1602 -0.1737,0.3961 -0.42687,0.873 -0.73047,1.6328 -0.60329,1.5102 -1.40802,3.4509 -2.21289,5.4082 -0.80493,1.9574 -1.61056,3.9322 -2.21485,5.5098 -0.25903,0.6759 -0.47497,1.2692 -0.64453,1.7675 -0.264,0.4151 -0.53419,0.8282 -0.875,1.1329 -0.34291,0.3066 -0.75274,0.5081 -1.32226,0.5078 -0.32617,0 -0.54966,-0.049 -0.69922,-0.125 -0.14949,-0.076 -0.23079,-0.1771 -0.28125,-0.3067 -0.10102,-0.2591 -0.0547,-0.6466 -0.0547,-1.0527 0,-0.04 0.02,-0.1588 0.0644,-0.3203 0.0449,-0.1614 0.11085,-0.3709 0.19532,-0.6211 0.16885,-0.5004 0.41264,-1.1624 0.70312,-1.9317 0.58107,-1.5388 1.35573,-3.5078 2.13086,-5.4785 0.77413,-1.9682 1.54845,-3.691 2.13086,-5.1191 0.58241,-1.4281 0.97615,-2.5558 0.97656,-3.3594 0,-0.5339 -0.24852,-0.9653 -0.61523,-1.2539 -0.36671,-0.2886 -0.84864,-0.4411 -1.33399,-0.4414 -0.51796,0 -0.90437,0.1299 -1.18359,0.3438 -0.27922,0.2139 -0.4485,0.5081 -0.54883,0.8203 -0.20071,0.6244 -0.1385,1.3354 -0.13867,1.7226 0,0.4546 -0.0938,0.7641 -0.26758,1.1602 -0.1737,0.3961 -0.42882,0.8729 -0.73242,1.6328 -0.60318,1.5101 -1.40607,3.4509 -2.21094,5.4082 -0.80493,1.9574 -1.61038,3.9323 -2.21484,5.5098 -0.45857,1.1973 -0.7944,2.1505 -0.93555,2.7187 -0.46727,0.4107 -1.11023,0.6898 -1.62305,0.6895 -0.095,0 -0.16028,-0.024 -0.21289,-0.066 -0.0525,-0.043 -0.095,-0.1086 -0.125,-0.2051 -0.0601,-0.193 -0.0627,-0.4992 -0.0117,-0.8789 0.10208,-0.7594 0.40852,-1.8172 0.77149,-2.9571 0.36298,-1.14 0.78154,-2.3639 1.11133,-3.4726 0.32979,-1.1088 0.57185,-2.0977 0.57226,-2.7871 0,-0.5772 -0.52952,-1.1987 -1.37109,-1.1992 -0.43839,0 -0.84205,0.057 -1.18555,0.3144 -0.29082,0.2178 -0.52542,0.5827 -0.71289,1.1387 -0.0654,-0.1665 -0.17539,-0.3734 -0.37891,-0.5801 -0.43827,-0.4452 -1.27902,-0.8761 -2.86718,-0.877 -1.24071,-5e-4 -2.37247,0.7805 -3.35156,1.9317 -1.3573,1.5981 -2.02614,4.491 -3.25782,4.8945 0.53954,-1.5432 0.76004,-3.0069 0.47266,-4.1152 -0.153,-0.5899 -0.44904,-1.0805 -0.91211,-1.418 -0.46301,-0.3376 -1.08824,-0.5198 -1.88477,-0.5078 -2.19607,0.033 -3.59676,1.6934 -3.89062,3.5098 -0.28808,1.7807 0.49367,3.7292 2.5918,4.4511 -1.07984,1.5769 -2.46695,2.8152 -3.83008,2.8145 -0.26796,0 -0.51219,-0.2061 -0.69727,-0.5918 -0.18513,-0.3858 -0.29918,-0.9398 -0.29883,-1.5723 0,-0.9015 0.47,-2.4802 1.13477,-4.3164 0.66466,-1.8362 1.52175,-3.9377 2.28516,-5.9238 0.38094,-0.9912 0.88229,-2.237 1.30273,-3.3477 0.42043,-1.1106 0.75971,-2.0731 0.82031,-2.5507 0.059,-0.4656 -0.0163,-0.9327 -0.21679,-1.2911 -0.20065,-0.3584 -0.5389,-0.609 -0.97461,-0.6093 -1.4217,-6e-4 -2.12798,0.4813 -2.45118,1.1172 -0.32314,0.6357 -0.27325,1.3983 -0.27343,1.9609 0,0.6293 -0.55554,1.5537 -0.95899,2.668 0,0 -2.89162,6.7549 -4.21679,10.8808 -0.37009,0.8925 -1.20431,1.793 -2.14258,2.4629 -0.93862,0.6703 -1.98281,1.1078 -2.74219,1.1074 -0.38351,0 -0.61645,-0.1654 -0.76758,-0.4707 -0.14331,-0.2895 -0.19261,-0.7177 -0.16992,-1.2168 1.52255,-0.2067 3.02975,-0.9851 4.16797,-2.0918 1.15986,-1.1278 1.93858,-2.5971 1.93945,-4.1464 0,-0.9412 -0.29821,-1.8465 -0.82812,-2.5215 -0.52992,-0.675 -1.29571,-1.1187 -2.21094,-1.1192 -1.07383,0 -2.14786,0.9116 -3.12305,2.2227 -0.95279,1.2809 -1.8085,2.9569 -2.45898,4.5937 -0.45373,-0.3118 -0.77462,-0.7316 -0.9961,-1.1797 0.48069,-0.9985 0.88394,-1.9188 1.16602,-2.6679 0.28662,-0.7612 0.4529,-1.3387 0.45312,-1.6797 0,-0.51 -0.2729,-0.89 -0.67578,-1.0586 -0.40287,-0.1686 -0.92578,-0.1341 -1.4414,0.1328 -1.03119,0.5339 -2.03169,1.9996 -2.03321,4.7207 0,0.402 0.0271,0.7697 0.0781,1.1113 0,0.086 -0.0451,0.2535 -0.13086,0.459 -0.0861,0.2064 -0.2113,0.4553 -0.36523,0.7305 -0.30791,0.5505 -0.72984,1.2029 -1.17774,1.8262 -0.44796,0.6234 -0.92239,1.2183 -1.33594,1.6543 -0.20677,0.218 -0.39845,0.3967 -0.56054,0.5175 -0.1621,0.1209 -0.29789,0.1778 -0.36328,0.1778 -0.31526,0 -0.4924,-0.1037 -0.60352,-0.293 -0.11111,-0.1893 -0.14912,-0.4835 -0.11523,-0.8555 0.0677,-0.7439 0.41139,-1.7823 0.84179,-2.8867 0.43035,-1.1044 0.94612,-2.2768 1.35547,-3.3066 0.40935,-1.0298 0.71645,-1.9088 0.7168,-2.4707 0,-0.312 -0.01,-0.7546 -0.30274,-1.1211 -0.29258,-0.3664 -0.85541,-0.6342 -1.90234,-0.6348 -0.499,0 -0.93418,0.3761 -1.32422,0.9571 -0.39004,0.5811 -0.74262,1.381 -1.0664,2.2812 -0.64762,1.8003 -1.18176,4.0052 -1.63282,5.6484 -0.35825,1.3052 -1.71952,2.6788 -3.51172,2.6778 -0.30407,0 -0.46235,-0.085 -0.54687,-0.2305 -0.0845,-0.1449 -0.0958,-0.378 -0.0332,-0.6797 0.12482,-0.6033 0.53575,-1.4547 1.03125,-2.3613 0.4955,-0.9067 1.07392,-1.8711 1.52929,-2.7227 0.45543,-0.8516 0.79475,-1.5783 0.79492,-2.0703 0,-0.7078 -0.19485,-1.2185 -0.50976,-1.5781 -0.31498,-0.3597 -0.74236,-0.5664 -1.19727,-0.6895 -0.8513,-0.2302 -1.79966,-0.1895 -2.33984,-0.2832 0.0667,-0.1366 0.22298,-0.4621 0.41016,-0.9629 0.23319,-0.6239 0.46846,-1.4097 0.46875,-2.0839 0,-0.5628 -0.22493,-0.9888 -0.55274,-1.2657 -0.32786,-0.2768 -0.75445,-0.408 -1.16211,-0.4082 -0.71219,0 -1.37397,0.5595 -1.86328,1.293 -0.48926,0.7335 -0.81002,1.6496 -0.81055,2.4199 0,1.1208 0.61818,1.981 1.26953,2.5625 -0.52203,1.4731 -1.79936,3.8649 -3.19335,5.8926 -0.7046,1.0249 -1.43732,1.9556 -2.11329,2.627 -0.67603,0.6714 -1.3,1.0724 -1.73828,1.0722 -0.0799,-1e-4 -0.12096,-0.022 -0.15625,-0.064 -0.0356,-0.042 -0.0639,-0.1136 -0.0742,-0.2207 -0.0204,-0.2142 0.0315,-0.5504 0.14258,-0.961 0.22235,-0.8214 0.67357,-1.947 1.17578,-3.1289 0.50227,-1.1819 1.05572,-2.4214 1.48438,-3.4785 0.42871,-1.0571 0.73633,-1.9183 0.73633,-2.4082 0,-0.4452 -0.15232,-0.7855 -0.38086,-1.0312 -0.22847,-0.2457 -0.52754,-0.3985 -0.82227,-0.4961 -0.58696,-0.1943 -1.16508,-0.1702 -1.16992,-0.17 -0.10855,0 -0.19845,0.067 -0.28711,0.1582 -0.0889,0.092 -0.17889,0.2195 -0.27734,0.3789 -0.19692,0.3188 -0.42154,0.7662 -0.67188,1.3028 -0.50064,1.0733 -1.10455,2.4989 -1.7832,3.9238 -0.6786,1.4249 -1.43243,2.8494 -2.22266,3.9102 -0.7903,1.0608 -1.61395,1.7445 -2.41211,1.7441 -0.0408,0 -0.0446,-0.01 -0.0605,-0.035 -0.0157,-0.032 -0.0265,-0.1044 -0.0195,-0.205 0.0134,-0.2014 0.092,-0.5117 0.2207,-0.8907 0.25729,-0.758 0.70784,-1.7947 1.19336,-2.8789 0.48547,-1.0841 1.00588,-2.2179 1.40625,-3.1796 0.20012,-0.481 0.3715,-0.9184 0.49219,-1.2872 0.12073,-0.3687 0.19323,-0.6656 0.19335,-0.8828 0,-0.786 -0.11117,-1.4143 -0.46289,-1.8535 -0.35178,-0.4391 -0.93596,-0.6655 -1.81836,-0.666 -0.0675,0 -0.10218,0.032 -0.14453,0.066 -0.0426,0.034 -0.0885,0.079 -0.14062,0.1367 -0.10412,0.1158 -0.23279,0.2811 -0.38672,0.4903 -0.30792,0.4184 -0.71358,1.0134 -1.19141,1.7265 -0.95571,1.4262 -2.20072,3.3255 -3.52343,5.2246 -1.32266,1.8991 -2.72317,3.799 -3.98633,5.2188 -0.63158,0.7099 -1.22901,1.2995 -1.76172,1.709 -0.53266,0.4096 -1.00031,0.633 -1.35547,0.6328 -0.21914,0 -0.36644,-0.068 -0.47656,-0.1934 -0.11013,-0.1258 -0.18247,-0.3201 -0.21094,-0.582 -0.0572,-0.5237 0.0638,-1.3006 0.32031,-2.2344 0.51306,-1.8675 1.55912,-4.3707 2.72656,-6.873 2.13886,-4.5845 4.45338,-8.7487 4.86524,-9.4864 -0.0636,0.3927 -0.13347,0.9098 -0.1582,1.4649 -0.0227,0.5158 -0.005,1.0335 0.11328,1.4355 0.0585,0.2011 0.14072,0.3741 0.26367,0.502 0.12302,0.1279 0.29105,0.205 0.48633,0.2051 1.27378,6e-4 2.09479,-0.6354 2.57226,-1.6446 0.47748,-1.0092 0.63195,-2.3863 0.63282,-3.9121 0,-1.5248 -0.12914,-2.8814 -0.44727,-3.8691 -0.15906,-0.4939 -0.36456,-0.8974 -0.63281,-1.1817 -0.26819,-0.2843 -0.60404,-0.447 -0.99414,-0.4472 z m 52.63672,14.5527 0.0898,0.01 c 0.21803,0.03 0.34861,0.1603 0.42969,0.4043 0.0812,0.2443 0.0951,0.5996 0.041,1.0234 -0.10546,0.8253 -0.46653,1.9111 -0.99609,2.9961 -1.16506,-0.5114 -1.76529,-1.6062 -1.73047,-2.5762 0.0175,-0.4971 0.19879,-0.9588 0.55273,-1.2968 0.35376,-0.3379 0.88366,-0.5609 1.61329,-0.5606 z m -12.37305,0.4707 c 0.0809,0.013 0.14168,0.061 0.19336,0.1641 0.0531,0.1056 0.0862,0.2646 0.0918,0.457 0.0111,0.3848 -0.0866,0.9012 -0.30078,1.4121 -0.42808,1.0214 -1.2995,2.0137 -2.63476,2.0137 0.35487,-1.0163 0.82225,-2.0175 1.30078,-2.7695 0.25023,-0.3933 0.50275,-0.7187 0.73828,-0.9415 0.23303,-0.2204 0.44696,-0.3336 0.61133,-0.3359 z m 22.23047,0.023 c 0.51066,0.057 0.83488,0.3804 0.98047,0.8672 0.14553,0.4868 0.0975,1.1353 -0.17579,1.795 v 0.01 0.01 c -0.37581,1.1339 -1.05631,2.6007 -1.79101,3.7773 -0.36729,0.5883 -0.74897,1.1042 -1.10938,1.4688 -0.36047,0.3645 -0.69817,0.5684 -0.95703,0.5683 -0.30722,0 -0.49685,-0.1136 -0.625,-0.3261 -0.12815,-0.2126 -0.18474,-0.5348 -0.17382,-0.9317 0.0216,-0.7937 0.31233,-1.8752 0.73632,-2.9551 0.42399,-1.0797 0.97959,-2.162 1.51953,-2.9687 0.27001,-0.4034 0.53669,-0.737 0.77735,-0.9668 0.21528,-0.2851 0.52019,-0.3723 0.81836,-0.3477 z"
         transform="matrix(1.9751457,0,0,1.9751457,1376.1328,-463.02944)" />
    </g>
  </g>
</svg>
