<?xml version="1.0" encoding="UTF-8" standalone="no"?>
<svg
   id="svg8"
   version="1.1"
   viewBox="0 0 1889.23 463.03064"
   height="463.03064"
   width="1889.23"
   style="background: black;"
   xmlns="http://www.w3.org/2000/svg"
   xmlns:svg="http://www.w3.org/2000/svg"
   xmlns:rdf="http://www.w3.org/1999/02/22-rdf-syntax-ns#"
   xmlns:cc="http://creativecommons.org/ns#"
   xmlns:dc="http://purl.org/dc/elements/1.1/">
  <defs
     id="defs2">
    <clipPath
       clipPathUnits="userSpaceOnUse"
       id="clipPath2235">
      <circle
         r="220.95764"
         cy="-7337.9995"
         cx="-11915.122"
         id="circle2237"
         style="opacity:0.63200001;vector-effect:none;fill:#fdfdfb;fill-opacity:1;fill-rule:evenodd;stroke:#000000;stroke-width:64.23187256;stroke-linecap:butt;stroke-linejoin:miter;stroke-miterlimit:4;stroke-dasharray:none;stroke-dashoffset:0;stroke-opacity:0" />
    </clipPath>
  </defs>
  <metadata
     id="metadata5">
    <rdf:RDF>
      <cc:Work
         rdf:about="">
        <dc:format>image/svg+xml</dc:format>
        <dc:type
           rdf:resource="http://purl.org/dc/dcmitype/StillImage" />
      </cc:Work>
    </rdf:RDF>
  </metadata>
  <g
     id="layer3"
     transform="translate(194.33248,463.93494)" />
  <g
     id="layer1"
     transform="translate(194.33248,463.93494)">
    <path
       id="path1133"
       d="m 1607.8767,-378.36295 c -0.7383,-0.0577 -1.4793,-0.0874 -2.2203,-0.0874 -25.5921,-0.0144 -22.5939,25.43307 -22.6001,35.54992 0,11.94589 -5.1301,16.81587 -12.8277,36.08015 -7.6956,19.26392 -17.954,44.00783 -28.2143,68.95826 -10.2603,24.95043 -20.5206,50.1063 -28.2162,70.19631 -3.3228,8.6703 -6.12,16.31214 -8.2808,22.67094 -6.7806,10.66557 -14.0012,21.57956 -29.1167,21.57127 -17.1122,-0.0126 -14.434,-10.01372 -14.4296,-20.15077 0,-6.54684 19.768,-56.67019 39.5314,-106.91567 19.7633,-50.24539 39.5212,-87.98303 39.5311,-107.64639 0,-12.85914 -11.7702,-20.35629 -23.6252,-20.36288 -25.5938,-0.0144 -22.5974,25.43298 -22.6019,35.54992 0,11.94571 -5.1328,16.81559 -12.8294,36.07979 -7.6949,19.2641 -17.9524,44.00837 -28.2127,68.95872 -10.2603,24.95043 -20.5187,50.1062 -28.2162,70.19621 -5.9324,15.48795 -10.3089,27.90348 -12.019,34.95253 -6.1857,5.5329 -14.6891,9.29546 -21.7474,9.29167 -22.9347,-0.0126 25.5867,-99.4242 25.6065,-133.40209 0,-6.59588 -6.1136,-14.05022 -16.236,-14.05581 -10.9633,-0.0126 -19.2918,2.84668 -24.3021,21.57019 0,0 -1.2386,-21.58596 -41.2862,-21.60832 -30.5924,-0.0171 -56.5135,38.69542 -72.928,77.50218 -4.4938,4.44324 -9.0136,8.65848 -13.6993,11.61136 15.6888,-41.876 12.6022,-79.70685 -27.2354,-79.10405 -54.7674,0.82888 -69.4584,82.50927 -14.6432,99.63784 -13.994,20.88761 -32.2735,37.72655 -50.7802,37.71618 -8.0932,0 -13.9391,-12.39462 -13.9301,-28.81294 0,-11.91254 6.0632,-32.00787 14.5503,-55.4518 8.4862,-23.44384 19.4027,-50.23485 29.1284,-75.53792 9.724,-25.30326 26.9902,-62.97582 26.9974,-74.9145 0,-10.28524 -4.4324,-20.35224 -13.957,-20.35773 -33.3843,-0.0189 -31.3226,22.01514 -31.328,35.54523 0,8.15206 -9.4085,20.39966 -14.5007,34.48945 0,0 -36.8981,86.21619 -53.7407,138.68105 -9.705,23.42977 -43.1405,46.30463 -63.4294,46.29335 -10.5514,0 -14.0436,-9.91095 -13.1899,-23.79089 38.9416,-4.72412 77.8579,-39.80808 77.8804,-78.48034 0,-23.4745 -14.9793,-45.16809 -37.5226,-45.18071 -25.9482,-0.0144 -53.9877,45.07578 -70.64008,87.5763 -6.8745,-4.29521 -11.4836,-10.44822 -14.5864,-16.90348 12.495,-25.88442 20.7874,-47.64833 20.791,-55.47136 0.028,-24.29805 -50.4242,-20.41272 -50.463,48.36318 0,5.12824 0.357,9.83398 1.0114,14.16678 0,11.60865 -40.3695,69.6494 -51.3797,69.64328 -34.5255,-0.0199 26.7333,-99.54112 26.7486,-126.31654 0,-7.89117 -0.5923,-21.13578 -26.8703,-21.15038 -22.9157,-0.0126 -38.5802,70.42177 -50.0971,112.37998 -4.719,17.19357 -22.5019,35.04727 -45.9756,35.03429 -33.0389,-0.0189 34.1442,-81.40184 34.1532,-104.05259 0.018,-35.19862 -38.2448,-28.16364 -52.1884,-31.50503 0,0 11.7873,-23.2449 11.7945,-39.85091 0,-13.70244 -10.7569,-20.09757 -20.617,-20.10317 -16.8282,-0.0126 -32.8505,27.16304 -32.8622,46.10731 -0.01,14.19851 8.0292,25.1181 16.4027,32.38574 -13.1728,37.86493 -66.0941,123.79609 -91.2553,123.78211 -20.65572,-0.0126 40.942,-109.27818 40.942,-132.03656 0,-21.59434 -29.0086,-20.4011 -29.0086,-20.4011 -13.0593,-0.0126 -54.13191,145.57468 -97.58976,145.55043 -14.22032,-0.0126 42.4257,-100.73518 42.43651,-120.53744 0.009,-19.80209 -5.75484,-30.87204 -27.84029,-30.88439 -8.28971,0 -119.04778,193.84375 -159.2379,193.821386 -48.99275,-0.02708 94.67447,-255.450616 94.67447,-255.450616 0,0 -11.05084,52.04829 6.41109,52.05803 31.67325,0.0171 39.60148,-30.87529 39.62311,-69.61029 0.0271,-38.73526 -6.64186,-68.8353 -25.20085,-68.84558 -68.29453,-0.0379 -194.64136,266.56745 -194.67111,320.20067 -0.0271,45.438929 16.28554,86.417983 66.76388,86.446114 22.41899,0.01263 74.53255,-47.87775 110.11446,-92.674664 3.41108,19.2815 14.12388,36.128423 35.29165,36.140137 29.60081,0.01625 52.26139,-47.728237 52.26139,-47.728237 0,0 -2.927,48.337888 21.44813,48.351502 57.79812,0.03249 114.67852,-120.446272 127.79452,-160.870032 6.0018,2.07711 12.9781,3.15587 20.8937,3.16037 0,17.47258 -44.8587,63.42808 -44.8821,106.51445 -0.01,25.5599 12.4814,50.676965 33.9305,50.689135 23.0671,0.01349 46.7039,-21.929555 61.8852,-46.492725 0.4363,18.1382 4.345,46.529957 37.2604,46.548616 21.102,0.01264 54.4907,-47.422746 80.4316,-94.378666 5.8162,8.33333 13.3279,13.68505 20.8631,17.10685 -2.616,10.41802 -4.0898,19.65848 -4.0952,26.65588 -0.01,27.79918 10.9796,50.675703 44.79288,50.694723 21.9097,0.01264 48.0092,-23.776973 69.5591,-50.295483 3.2967,25.47508 17.4151,50.345607 47.363,50.362375 36.4401,0.01986 76.4517,-41.906705 99.3629,-86.168295 4.5775,-0.89388 8.89,-2.4002 12.9412,-4.35083 -5.1122,16.73158 -7.9355,31.3224 -7.9391,39.90615 -0.027,32.03311 18.5418,50.68401 39.4366,50.695724 37.9815,0.02071 67.5606,-50.634784 67.5606,-50.634784 0,0 -14.2446,50.662278 21.2409,50.6822 17.5457,0.01264 33.6673,-12.555135 46.3389,-28.10428 7.244,16.36658 20.863,28.139441 37.2982,28.148723 19.2991,0.01264 39.1852,-8.732105 55.4112,-20.863503 7.7569,11.509045 19.3928,19.351142 32.8406,20.914881 41.8308,4.864297 77.6416,-40.582741 77.6516,-59.965931 0,-6.11433 -4.1404,-13.92664 -11.4871,-13.93087 -17.5801,-0.0126 -16.2487,26.6291 -45.424,23.23634 -16.9977,-1.9767 -14.4331,-10.01355 -14.4286,-20.1505 0,-6.54695 19.767,-56.6702 39.5303,-106.91559 19.7642,-50.24576 39.5213,-87.98339 39.5321,-107.64648 0,-12.05586 -10.3451,-19.39896 -21.4067,-20.27499 z m -258.6352,144.22476 c 13.9661,1.5458 18.4049,18.39592 11.26,35.64529 -9.6617,29.14991 -34.7364,74.98146 -50.3521,74.97272 -34.0171,-0.0189 16.8344,-110.78631 36.1326,-110.77531 1.043,0 2.0283,0.0541 2.9595,0.1573 z m -124.5096,-6.20998 c 12.9691,1.76774 7.9552,30.67309 -6.2525,59.27654 -32.1077,-12.97272 -33.2706,-59.38317 4.9561,-59.36172 z m -158.9594,5.89917 c 12.1768,1.61547 1.4081,54.09006 -33.8818,54.07041 -0.6238,0 -1.2215,0.0522 -1.8029,0.1326 9.2344,-27.29645 25.163,-54.20906 35.6847,-54.20301 z"
       style="display:inline;opacity:1;fill:#fdfdfb;fill-opacity:1;stroke:#fdfdfb;stroke-width:2.46935;stroke-linecap:butt;stroke-linejoin:miter;stroke-miterlimit:4;stroke-dasharray:none;stroke-opacity:1" />
    <g
       transform="matrix(1.2574628,0,0,1.2574628,15735.857,9400.91)"
       id="g2263">
      <g
         transform="matrix(1.1948613,-2.2966316e-8,2.2966316e-8,1.1948613,3314.4609,1403.2591)"
         id="g2255">
        <circle
           r="126.89342"
           cy="-7585.9995"
           cx="-13195.122"
           id="circle2247"
           style="opacity:1;vector-effect:none;fill:#fdfdfb;fill-opacity:1;fill-rule:evenodd;stroke:#fdfdfb;stroke-width:9.8367;stroke-linecap:butt;stroke-linejoin:miter;stroke-miterlimit:4;stroke-dasharray:none;stroke-dashoffset:0;stroke-opacity:1" />
        <circle
           style="opacity:1;vector-effect:none;fill:#fdfdfb;fill-opacity:1;fill-rule:evenodd;stroke:#1d1e3a;stroke-width:20.9229;stroke-linecap:butt;stroke-linejoin:miter;stroke-miterlimit:4;stroke-dasharray:none;stroke-dashoffset:0;stroke-opacity:1"
           id="circle2249"
           cx="-13195.122"
           cy="-7585.9995"
           r="114.56312" />
        <g
           aria-label="} {"
           transform="matrix(0.4440431,0,0,0.4440431,-7904.2943,-4327.6114)"
           clip-path="url(#clipPath2235)"
           style="font-style:normal;font-variant:normal;font-weight:normal;font-stretch:normal;font-size:340.718px;line-height:0;font-family:Montserrat;-inkscape-font-specification:'Montserrat, Normal';font-variant-ligatures:normal;font-variant-caps:normal;font-variant-numeric:normal;font-feature-settings:normal;text-align:start;letter-spacing:0px;word-spacing:0px;writing-mode:lr-tb;text-anchor:start;fill:#ff4e60;fill-opacity:1;stroke:none;stroke-width:1.01064"
           id="text2253">
          <path
             d="m -11981.501,-7362.8717 v 49.7448 h -11.243 q -6.815,0 -10.903,3.7479 -3.748,3.7479 -3.748,11.5844 v 52.8113 q 0,32.0275 -18.399,49.0634 -18.058,17.3766 -53.493,17.3766 h -22.487 v -49.4041 h 5.111 q 12.266,0 18.398,-6.4736 6.133,-6.133 6.133,-18.0581 v -43.6119 q 0,-18.7395 5.793,-28.2796 6.132,-9.8808 19.761,-13.6287 -13.629,-3.7479 -19.761,-13.288 -5.793,-9.8808 -5.793,-28.6203 v -43.6119 q 0,-11.9252 -6.133,-18.0581 -6.132,-6.4736 -18.398,-6.4736 h -5.111 v -49.4041 h 22.487 q 35.435,0 53.493,17.3766 18.399,17.0359 18.399,49.0634 v 52.8113 q 0,7.8365 3.748,11.5844 4.088,3.7479 10.903,3.7479 z"
             style="font-style:normal;font-variant:normal;font-weight:800;font-stretch:normal;font-family:Montserrat;-inkscape-font-specification:'Montserrat Ultra-Bold';text-align:center;text-anchor:middle;fill:#ff4e60;fill-opacity:1;stroke-width:1.01064"
             id="path882" />
          <path
             d="m -11758.304,-7379.9076 q 0,18.7395 -6.133,28.6203 -5.792,9.5401 -19.421,13.288 13.629,3.7479 19.421,13.6287 6.133,9.5401 6.133,28.2796 v 43.6119 q 0,11.9251 6.133,18.0581 6.133,6.4736 18.399,6.4736 h 4.77 v 49.4041 h -22.147 q -35.434,0 -53.833,-17.3766 -18.058,-17.0359 -18.058,-49.0634 v -52.8113 q 0,-7.8365 -4.089,-11.5844 -3.748,-3.7479 -10.562,-3.7479 h -11.584 v -49.7448 h 11.584 q 6.814,0 10.562,-3.7479 4.089,-3.7479 4.089,-11.5844 v -52.8113 q 0,-32.0275 18.058,-49.0634 18.399,-17.3766 53.833,-17.3766 h 22.147 v 49.4041 h -4.77 q -12.266,0 -18.399,6.4736 -6.133,6.1329 -6.133,18.0581 z"
             style="font-style:normal;font-variant:normal;font-weight:800;font-stretch:normal;font-family:Montserrat;-inkscape-font-specification:'Montserrat Ultra-Bold';text-align:center;text-anchor:middle;fill:#ff4e60;fill-opacity:1;stroke-width:1.01064"
             id="path884" />
        </g>
      </g>
    </g>
  </g>
</svg>
